<svg xmlns="http://www.w3.org/2000/svg" width="188.358" height="175.645" viewBox="0 0 188.358 175.645"><path d="M162.593,25.279c-2.9-7.647-29.9.712-30.175.8-1,.311-2.006.66-3,1.009a4.982,4.982,0,0,0-.479-4.581c-3.52-4.969-16.071.129-23.291,3.61a67.583,67.583,0,0,0-10.856,6.612,4.71,4.71,0,0,0-1.9-2.355c-4.813-3-13.6,4.723-18.387,9.588a51.072,51.072,0,0,0-6.586,8.372,4.011,4.011,0,0,0-1.1-.634c-4.956-1.967-11.063,6.366-14.233,11.516A46.349,46.349,0,0,0,47.006,72.4c-1.475-2.588-3.3-4.348-5.667-4.244a3.236,3.236,0,0,0-.492.078,187.389,187.389,0,0,0-2.7-30.86c-.7-4.063-1.54-8.139-2.51-12.137A2.589,2.589,0,1,0,30.6,26.457c.945,3.882,1.76,7.854,2.446,11.788a182.509,182.509,0,0,1,2.588,34.936,26.861,26.861,0,0,0-1.5,3.882,179.738,179.738,0,0,0-6.858-21.648A177.913,177.913,0,0,0,16.391,32.4a2.6,2.6,0,1,0-4.5,2.588,173.594,173.594,0,0,1,10.6,22.269A174.993,174.993,0,0,1,32.2,93.482a45.1,45.1,0,0,0,.634,6.25c.142.776.323,1.566.518,2.342a43.657,43.657,0,0,0,4.658,11.516,126.7,126.7,0,0,0-7.233,32.348,2.588,2.588,0,0,0,2.342,2.808h.246a2.588,2.588,0,0,0,2.588-2.342c.194-2.213.453-4.4.763-6.573a89.076,89.076,0,0,1,14.505-15.087c20.276-16.549,43.541-20.483,59.521-20.871a2.588,2.588,0,0,0,0-5.176c-16.821.4-41.238,4.568-62.639,22a92.31,92.31,0,0,0-9.265,8.747,118.264,118.264,0,0,1,4.412-14.621,2.239,2.239,0,0,0,.414,0A63.519,63.519,0,0,0,56.5,111.183c.233-.091,23.653-9.562,21.208-17.753A4.529,4.529,0,0,0,76.417,91.4a61.244,61.244,0,0,0,7.466-5.409c4.917-4.205,10.442-8.928,9.523-13.276,20.185-4.788,24.274-8.191,24.08-12.008a3.883,3.883,0,0,0-.078-.647A49.17,49.17,0,0,0,126,58.223c10.274-3.183,14.621-6.133,14.518-9.834a4.542,4.542,0,0,0-1.786-3.494,66.725,66.725,0,0,0,10.352-5.176C160.174,32.875,163.939,28.824,162.593,25.279Zm-54.643,5.5c7.544-3.662,14.389-5.564,16.536-5.176a31.058,31.058,0,0,1-2.161,4.516,28.144,28.144,0,0,1-6.6,8.165,2.2,2.2,0,0,0-.375.4,141.754,141.754,0,0,0-22.32,10.429A51.589,51.589,0,0,0,95.4,38.891a62.46,62.46,0,0,1,12.551-8.113ZM78.19,43.6c5.02-5.1,10.351-8.708,11.995-8.773a5.486,5.486,0,0,1,.207,2.251,2.588,2.588,0,0,0,0,.543,62.678,62.678,0,0,1-4.076,14.984,2.368,2.368,0,0,0-.155.776A128.967,128.967,0,0,0,69.792,66.219a49.986,49.986,0,0,0,.569-6.948c0-1.617,0-3.248-.091-4.775A46.271,46.271,0,0,1,78.19,43.6ZM56.943,61.885c2.873-4.593,6.25-8.346,7.854-9.2a9.214,9.214,0,0,1,.259,1.54h0c.155,1.566.142,3.61.129,4.956a43.411,43.411,0,0,1-2.5,14.1A121.629,121.629,0,0,0,51.625,87.207a33.979,33.979,0,0,0-1.385-6.845,2.5,2.5,0,0,0,.712-1.41,42.61,42.61,0,0,1,5.991-17.067ZM38.375,100.832c-.3-2.691-.686-5.37-1.1-8.048a39.7,39.7,0,0,1,3.041-17.546,2.5,2.5,0,0,0,.285-.556,6.107,6.107,0,0,1,.867-1.294c.582.582,1.941,2.5,3.882,8.488a29.89,29.89,0,0,1,.88,14.091A123.161,123.161,0,0,0,40.6,107.289,37.626,37.626,0,0,1,38.375,100.832Zm16.045,5.551a58.5,58.5,0,0,1-9.058,2.782,114.689,114.689,0,0,1,5.59-11c.492-.88,1.009-1.734,1.514-2.588A32.995,32.995,0,0,1,61.86,93.9c7.3-.22,9.86.673,10.623,1.074C71.332,97.183,63.724,102.682,54.42,106.383ZM80.377,82.044a56.027,56.027,0,0,1-10.351,7,50.58,50.58,0,0,0-8.333-.311,37.794,37.794,0,0,0-5.176.531,115.985,115.985,0,0,1,9.575-12.008,32.646,32.646,0,0,1,11.218-3.7,27.923,27.923,0,0,1,10.119,0l.3.091a2.718,2.718,0,0,1,.427.194C87.778,75.743,82.434,80.3,80.377,82.044Zm8.1-13.535a32.155,32.155,0,0,0-11.8-.078c-.66.091-1.294.194-1.954.323A123.727,123.727,0,0,1,88.05,58.4a2.77,2.77,0,0,0,.427-.1,31.313,31.313,0,0,1,14.634-.336c5.253,1.152,7.764,2.329,8.734,3C110.538,62.027,105.777,64.615,88.477,68.509Zm36-15.23a43.813,43.813,0,0,1-12.435,1.967A44.809,44.809,0,0,0,104.2,52.9a35.609,35.609,0,0,0-6-.763,136.292,136.292,0,0,1,19.06-8.682h.181c12.862,2.187,16.627,4.257,17.662,5.059C134.347,49.282,131.94,50.925,124.474,53.28Zm22-18a60.931,60.931,0,0,1-13.379,6.172,2.445,2.445,0,0,0-.556.259,80.481,80.481,0,0,0-10.222-2.588.091.091,0,0,1,0-.065A33.72,33.72,0,0,0,126,34.1a74.287,74.287,0,0,1,7.984-3.015c9.86-3.093,19.694-4.205,23.123-3.688-1.009,1.113-3.662,3.545-10.688,7.88Z" transform="translate(-18.36 42.054) rotate(-22)"/></svg>