<svg xmlns="http://www.w3.org/2000/svg" width="120.417" height="170" viewBox="0 0 120.417 170"><g transform="translate(1482 -706)"><path d="M154.84,116.524a3.465,3.465,0,0,0-1.065-2.62,3.381,3.381,0,0,0-2.7-.9c-1.133.118-2.265.321-3.381.507a67.987,67.987,0,0,0-5.206-38.575,3.381,3.381,0,0,0-4.192-1.809c-1.69.575-3.246,1.234-4.818,1.927A51.557,51.557,0,0,0,122.4,43.668a3.381,3.381,0,0,0-4.412-.811,52.77,52.77,0,0,0-4.733,3.212,64.689,64.689,0,0,0-7.793-15.45,63.625,63.625,0,0,0-8.452-9.973,3.381,3.381,0,0,0-4.581,0A62.916,62.916,0,0,0,75.172,46c-1.5-1.1-3.043-2.147-4.632-3.127a3.381,3.381,0,0,0-4.412.811,51.557,51.557,0,0,0-11.072,31.39c-1.572-.693-3.161-1.352-4.818-1.927a3.381,3.381,0,0,0-4.192,1.809,67.869,67.869,0,0,0-5.071,38.879c-.93-.135-1.859-.3-2.806-.406a3.392,3.392,0,0,0-3.719,3.786,64.42,64.42,0,0,0,21.975,40.755,62.155,62.155,0,0,0,34.72,14.216V186.37a3.381,3.381,0,0,0,6.762,0V172.306a59.349,59.349,0,0,0,40.18-17.242,60.2,60.2,0,0,0,16.752-38.541ZM141.587,98.589a61.277,61.277,0,0,1-1.065,16.464,61.8,61.8,0,0,0-7.86,2.738,65.807,65.807,0,0,0-14,8.148,81.478,81.478,0,0,0-9.77-11.106l-1.048-.947a52.03,52.03,0,0,1,14.419-23.479,50.948,50.948,0,0,1,15.213-9.8A61.58,61.58,0,0,1,141.587,98.589ZM86.379,109.762a59.838,59.838,0,0,0-7.167-14.453A49.528,49.528,0,0,1,94.425,66.269a54.092,54.092,0,0,1,7.2,8.148A55.631,55.631,0,0,1,110.467,93.4a.237.237,0,0,1,0,.1,59.621,59.621,0,0,0-8.266,15.721q-2.907-2.265-6-4.226a3.381,3.381,0,0,0-3.736,0C90.4,106.5,88.357,108.072,86.379,109.762Zm32.489-59.518a44.643,44.643,0,0,1,6.322,13.878,45.253,45.253,0,0,1,1.386,14.6,57.71,57.71,0,0,0-8.908,6.761c-.676.609-1.3,1.234-1.927,1.876a62.239,62.239,0,0,0-8.621-16.9c-1.1-1.521-2.3-2.975-3.533-4.395a54.968,54.968,0,0,1,7.59-9.415,56.358,56.358,0,0,1,7.691-6.407ZM87.681,36.028a57.3,57.3,0,0,1,6.762-8.283A55.779,55.779,0,0,1,99.8,34.388a57.744,57.744,0,0,1,7.725,16.3l-1.183,1.1a61.919,61.919,0,0,0-7.674,9.246c-.71-.659-1.4-1.3-2.147-1.91a3.381,3.381,0,0,0-4.327,0c-.845.71-1.69,1.42-2.434,2.164A61.918,61.918,0,0,0,81.933,51.8c-.423-.423-.862-.811-1.3-1.217A56.189,56.189,0,0,1,87.681,36.028ZM63.255,64.122a44.373,44.373,0,0,1,6.322-13.777,55.021,55.021,0,0,1,7.691,6.322A56.122,56.122,0,0,1,85.061,66.4,56.171,56.171,0,0,0,78.6,75.954a56.881,56.881,0,0,0-4.885,12.492c-.93-.98-1.893-1.978-2.941-2.941a57.709,57.709,0,0,0-8.908-6.762,45.252,45.252,0,0,1,1.386-14.622Zm-16.4,34.551a61.581,61.581,0,0,1,4.057-18,50.949,50.949,0,0,1,15.213,9.8A52.081,52.081,0,0,1,80.784,114.8l-1.437,1.4a90.839,90.839,0,0,0-8.08,9.534,72.8,72.8,0,0,0-15.213-7.911,75.742,75.742,0,0,0-8.148-2.536,62.359,62.359,0,0,1-1.048-16.7ZM93.6,165.545a55.106,55.106,0,0,1-32.844-12.779,57.033,57.033,0,0,1-18.932-31.982,67.8,67.8,0,0,1,11.934,3.279,67.008,67.008,0,0,1,16.38,9.01,3.381,3.381,0,0,0,4.834-.811,83.556,83.556,0,0,1,19.608-20.285,77.52,77.52,0,0,1,9.72,7.826,75.763,75.763,0,0,1,10.9,13,3.381,3.381,0,0,0,5.071.71,58.571,58.571,0,0,1,15.213-9.415,57.69,57.69,0,0,1,12.374-3.736,52.824,52.824,0,0,1-14.588,29.97C118.919,164.886,100.747,165.832,93.6,165.545Z" transform="translate(-1516.425 686.249)"/></g></svg>