<svg xmlns="http://www.w3.org/2000/svg" width="121.652" height="171.744" viewBox="0 0 121.652 171.744"><path d="M156.075,117.516A3.5,3.5,0,0,0,155,114.869a3.416,3.416,0,0,0-2.732-.905c-1.144.12-2.288.324-3.415.512a68.685,68.685,0,0,0-5.26-38.97,3.415,3.415,0,0,0-4.235-1.827c-1.708.581-3.279,1.247-4.867,1.947A52.086,52.086,0,0,0,123.3,43.914a3.415,3.415,0,0,0-4.457-.82,53.312,53.312,0,0,0-4.782,3.245,65.353,65.353,0,0,0-7.873-15.609,64.278,64.278,0,0,0-8.539-10.076,3.415,3.415,0,0,0-4.628,0A63.561,63.561,0,0,0,75.59,46.27c-1.52-1.11-3.074-2.169-4.679-3.159a3.415,3.415,0,0,0-4.457.82A52.085,52.085,0,0,0,55.268,75.643c-1.588-.7-3.193-1.366-4.867-1.947a3.415,3.415,0,0,0-4.235,1.827A68.565,68.565,0,0,0,41.043,114.8c-.939-.137-1.878-.307-2.835-.41a3.427,3.427,0,0,0-3.757,3.825,65.081,65.081,0,0,0,22.2,41.173,62.793,62.793,0,0,0,35.077,14.362V188.08a3.415,3.415,0,0,0,6.831,0V173.871a59.958,59.958,0,0,0,40.593-17.419,60.812,60.812,0,0,0,16.924-38.936ZM142.686,99.4a61.906,61.906,0,0,1-1.076,16.633,62.43,62.43,0,0,0-7.941,2.767,66.482,66.482,0,0,0-14.14,8.231,82.315,82.315,0,0,0-9.871-11.22l-1.059-.956a52.563,52.563,0,0,1,14.567-23.72,51.471,51.471,0,0,1,15.369-9.9A62.212,62.212,0,0,1,142.686,99.4ZM86.912,110.685a60.452,60.452,0,0,0-7.241-14.6,50.036,50.036,0,0,1,15.37-29.339,54.647,54.647,0,0,1,7.275,8.231,56.2,56.2,0,0,1,8.931,19.178.24.24,0,0,1,0,.1,60.232,60.232,0,0,0-8.351,15.882q-2.937-2.288-6.062-4.269a3.415,3.415,0,0,0-3.774,0C90.976,107.39,88.91,108.978,86.912,110.685Zm32.822-60.129a45.1,45.1,0,0,1,6.387,14.02,45.717,45.717,0,0,1,1.4,14.755,58.3,58.3,0,0,0-9,6.831c-.683.615-1.315,1.247-1.947,1.9a62.878,62.878,0,0,0-8.709-17.077c-1.11-1.537-2.323-3.006-3.569-4.44a55.532,55.532,0,0,1,7.668-9.512,56.936,56.936,0,0,1,7.77-6.472ZM88.227,36.195a57.891,57.891,0,0,1,6.831-8.368,56.351,56.351,0,0,1,5.413,6.711A58.336,58.336,0,0,1,108.276,51l-1.2,1.11a62.554,62.554,0,0,0-7.753,9.341c-.717-.666-1.417-1.315-2.169-1.93a3.415,3.415,0,0,0-4.372,0c-.854.717-1.708,1.434-2.459,2.186a62.553,62.553,0,0,0-7.907-9.58c-.427-.427-.871-.82-1.315-1.23A56.765,56.765,0,0,1,88.227,36.195ZM63.55,64.577a44.828,44.828,0,0,1,6.387-13.918,55.586,55.586,0,0,1,7.77,6.387,56.7,56.7,0,0,1,7.873,9.836,56.747,56.747,0,0,0-6.524,9.649,57.465,57.465,0,0,0-4.935,12.62c-.939-.99-1.913-2-2.971-2.971a58.3,58.3,0,0,0-9-6.831,45.716,45.716,0,0,1,1.4-14.772ZM46.985,99.483a62.213,62.213,0,0,1,4.1-18.187,51.471,51.471,0,0,1,15.369,9.9,52.615,52.615,0,0,1,14.806,24.574l-1.452,1.417a91.772,91.772,0,0,0-8.163,9.632,73.551,73.551,0,0,0-15.369-7.992,76.52,76.52,0,0,0-8.231-2.562A63,63,0,0,1,46.985,99.4ZM94.2,167.04a55.672,55.672,0,0,1-33.181-12.91A57.619,57.619,0,0,1,41.9,121.82a68.5,68.5,0,0,1,12.057,3.313,67.7,67.7,0,0,1,16.548,9.1,3.415,3.415,0,0,0,4.884-.82,84.413,84.413,0,0,1,19.81-20.493,78.315,78.315,0,0,1,9.819,7.907,76.54,76.54,0,0,1,11.015,13.132,3.415,3.415,0,0,0,5.123.717,59.172,59.172,0,0,1,15.37-9.512,58.281,58.281,0,0,1,12.5-3.774,53.366,53.366,0,0,1-14.738,30.278C119.786,166.374,101.428,167.331,94.2,167.04Z" transform="translate(-34.425 -19.751)"/></svg>