<svg xmlns="http://www.w3.org/2000/svg" width="61.008" height="61.008" viewBox="0 0 61.008 61.008"><path d="M30.5,0c-8.287,0-9.322.038-12.575.183a22.493,22.493,0,0,0-7.4,1.418A14.938,14.938,0,0,0,5.12,5.12a14.884,14.884,0,0,0-3.518,5.4,22.427,22.427,0,0,0-1.418,7.4C.031,21.182,0,22.217,0,30.5s.038,9.322.183,12.575a22.507,22.507,0,0,0,1.418,7.4,14.959,14.959,0,0,0,3.518,5.4,14.917,14.917,0,0,0,5.4,3.518,22.521,22.521,0,0,0,7.4,1.418c3.254.153,4.288.183,12.575.183s9.322-.038,12.575-.183a22.573,22.573,0,0,0,7.4-1.418,15.589,15.589,0,0,0,8.922-8.922,22.507,22.507,0,0,0,1.418-7.4c.153-3.254.183-4.288.183-12.575s-.038-9.322-.183-12.575a22.559,22.559,0,0,0-1.418-7.4,14.971,14.971,0,0,0-3.518-5.4,14.862,14.862,0,0,0-5.4-3.518,22.441,22.441,0,0,0-7.4-1.418C39.826.031,38.791,0,30.5,0Zm0,5.491c8.142,0,9.113.041,12.329.18a16.806,16.806,0,0,1,5.661,1.055,10.038,10.038,0,0,1,5.791,5.788,16.842,16.842,0,0,1,1.05,5.661c.145,3.218.178,4.184.178,12.329s-.038,9.113-.188,12.329a17.166,17.166,0,0,1-1.07,5.661,9.686,9.686,0,0,1-2.285,3.513,9.517,9.517,0,0,1-3.508,2.278,16.966,16.966,0,0,1-5.681,1.05c-3.239.145-4.192.178-12.352.178s-9.116-.038-12.352-.188a17.3,17.3,0,0,1-5.684-1.07,9.446,9.446,0,0,1-3.505-2.285A9.262,9.262,0,0,1,6.6,48.461a17.311,17.311,0,0,1-1.068-5.681c-.114-3.2-.155-4.192-.155-12.313s.041-9.116.155-12.357A17.292,17.292,0,0,1,6.6,12.43,9.042,9.042,0,0,1,8.887,8.92a9.022,9.022,0,0,1,3.505-2.283,16.883,16.883,0,0,1,5.646-1.07c3.241-.114,4.194-.153,12.352-.153l.114.076Zm0,9.349A15.664,15.664,0,1,0,46.168,30.5,15.663,15.663,0,0,0,30.5,14.84Zm0,25.832A10.168,10.168,0,1,1,40.672,30.5,10.165,10.165,0,0,1,30.5,40.672Zm19.945-26.45a3.66,3.66,0,1,1-3.66-3.658A3.663,3.663,0,0,1,50.449,14.222Z" fill="#373737"/></svg>