<svg xmlns="http://www.w3.org/2000/svg" width="99.636" height="170.242" viewBox="0 0 99.636 170.242"><path d="M70.743,73.149H94.236a8.443,8.443,0,1,0,0-16.871H70.743a8.443,8.443,0,0,0,0,16.871Zm0-11.1H94.236a2.66,2.66,0,1,1,0,5.306H70.743a2.66,2.66,0,0,1,0-5.306ZM116.8,42.818H91.243V29.894A2.891,2.891,0,0,0,88.352,27H85.359v-7.98h7.228a2.891,2.891,0,1,0,0-5.783H72.348a2.891,2.891,0,1,0,0,5.783h7.228V27h-3.05a2.891,2.891,0,0,0-2.891,2.891V42.818h-25.5A15.5,15.5,0,0,0,32.65,58.3V168a15.5,15.5,0,0,0,15.483,15.483H116.8a15.512,15.512,0,0,0,15.483-15.5V58.3A15.5,15.5,0,0,0,116.8,42.818Zm9.7,70.3H38.433v-24H126.5ZM38.433,118.9H126.5v24.013H38.433ZM79.417,32.785H85.4V42.818H79.417ZM48.133,48.6H116.8a9.715,9.715,0,0,1,9.7,9.7V83.341H38.433V58.3A9.715,9.715,0,0,1,48.133,48.6ZM116.8,177.7H48.133a9.715,9.715,0,0,1-9.7-9.715V148.7H126.5V168A9.715,9.715,0,0,1,116.8,177.7Z" transform="translate(-32.65 -13.24)"/></svg>