<svg xmlns="http://www.w3.org/2000/svg" width="151.713" height="170" viewBox="0 0 151.713 170"><path d="M165.094,73.84a20.076,20.076,0,0,0-13-24.237,20.791,20.791,0,0,0-20.84,4.763,21.311,21.311,0,0,0-10.924-9.4,21.9,21.9,0,0,0-17.393,1.105,26.383,26.383,0,0,0-23.912-9.461A26.692,26.692,0,0,0,57.288,57.894,21.847,21.847,0,0,0,37.1,67.224c-6.632,10.078-2.325,23.294,5.836,29.26l.276.2a20.238,20.238,0,0,0-19.88,20.254v29.26a20.238,20.238,0,0,0,20.222,20.222h9.753A27.634,27.634,0,0,0,80.159,187.71h39.013a27.634,27.634,0,0,0,27.634-27.634l.423-72.4A19.8,19.8,0,0,0,165.094,73.84ZM42.528,70.8a15.085,15.085,0,0,1,12.728-6.5,17.166,17.166,0,0,1,4.031.471,3.251,3.251,0,0,0,4-2.91A20.319,20.319,0,0,1,79.98,43.052a20.027,20.027,0,0,1,19.377,9.087,3.251,3.251,0,0,0,4.617.845,16.012,16.012,0,0,1,14.077-1.934,15.752,15.752,0,0,1,9.282,10.241,3.251,3.251,0,0,0,5.885.894,14.63,14.63,0,0,1,16.808-6.5c5.982,2.1,10.972,9.1,8.843,16.256a13.573,13.573,0,0,1-15.215,9.087,3.251,3.251,0,0,0-3.251,1.5c-1.626,2.747-6.5,9.282-14.793,10.907C115.3,95.444,104.282,89.12,98.8,78.05a3.267,3.267,0,0,0-5.039-1.024,13.654,13.654,0,0,1-6.6,3.154,13.9,13.9,0,0,1-8.5-1.268,3.277,3.277,0,0,0-4.487,1.739,19.685,19.685,0,0,1-6,8.372c-4.048,3.251-13.7,7.868-21.327,2.243C41.016,87.04,37.927,77.79,42.528,70.8Zm10,77.425H48.932A7.445,7.445,0,0,1,41.5,140.8v-18.45a7.429,7.429,0,0,1,7.429-7.412h3.592Zm-22.758-2v-29.26a13.72,13.72,0,0,1,13.72-13.72H52.46v5.218H48.932A13.931,13.931,0,0,0,35,122.379v18.369a13.931,13.931,0,0,0,13.931,13.98h3.592v5.218H43.552a13.736,13.736,0,0,1-13.72-13.768Zm89.308,35.014H80.062A21.132,21.132,0,0,1,58.93,160.108V100.044A29.26,29.26,0,0,0,72.1,94.127,26.009,26.009,0,0,0,78.745,86a20.254,20.254,0,0,0,9.379.6,20.01,20.01,0,0,0,6.5-2.357c7.266,11.623,19.978,17.881,32.056,15.573A27.5,27.5,0,0,0,140.516,92.4l-.39,67.672a21.132,21.132,0,0,1-20.986,21.116ZM76.437,105.165a8.778,8.778,0,0,0-8.762,8.778v52.684a8.762,8.762,0,1,0,17.523,0V113.943a8.778,8.778,0,0,0-8.762-8.778Zm2.26,61.462a2.26,2.26,0,1,1-4.519,0V113.943a2.26,2.26,0,0,1,4.519,0ZM99.65,105.165a8.778,8.778,0,0,0-8.778,8.778v52.684a8.778,8.778,0,0,0,17.54,0V113.943a8.778,8.778,0,0,0-8.762-8.778Zm2.26,61.462a2.276,2.276,0,0,1-4.535,0V113.943a2.276,2.276,0,1,1,4.535,0Zm21.018-61.462a8.778,8.778,0,0,0-8.778,8.778v52.684a8.778,8.778,0,0,0,17.54,0V113.943a8.778,8.778,0,0,0-8.762-8.778Zm2.276,61.462a2.26,2.26,0,0,1-2.259,2.26,2.308,2.308,0,0,1-2.276-2.26V113.943a2.308,2.308,0,0,1,2.276-2.276,2.276,2.276,0,0,1,2.26,2.276ZM50.655,36.144a9.217,9.217,0,1,0-9.2-9.217,9.217,9.217,0,0,0,9.2,9.217Zm0-11.915a2.715,2.715,0,1,1-2.7,2.7A2.715,2.715,0,0,1,50.655,24.228ZM165.842,99.215a9.217,9.217,0,1,0,9.2,9.2A9.217,9.217,0,0,0,165.842,99.215Zm0,11.915a2.715,2.715,0,1,1,2.7-2.715,2.715,2.715,0,0,1-2.7,2.715ZM134.388,42.857a9.193,9.193,0,1,1,.016,0Zm0-11.915a2.69,2.69,0,1,0,.016,0Z" transform="translate(-23.33 -17.71)"/></svg>