<svg xmlns="http://www.w3.org/2000/svg" width="147.107" height="164.839" viewBox="0 0 147.107 164.839"><path d="M160.79,72.136a19.466,19.466,0,0,0-12.61-23.5,20.16,20.16,0,0,0-20.207,4.618,20.664,20.664,0,0,0-10.592-9.11,21.231,21.231,0,0,0-16.865,1.072,25.582,25.582,0,0,0-23.186-9.173A25.881,25.881,0,0,0,56.257,56.674,21.184,21.184,0,0,0,36.68,65.721c-6.431,9.772-2.254,22.587,5.659,28.372l.268.189A19.624,19.624,0,0,0,23.33,113.921v28.372A19.624,19.624,0,0,0,42.938,161.9H52.4a26.8,26.8,0,0,0,26.039,20.648h37.829a26.8,26.8,0,0,0,26.8-26.8l.41-70.2A19.2,19.2,0,0,0,160.79,72.136ZM41.945,69.189a14.627,14.627,0,0,1,12.342-6.3,16.645,16.645,0,0,1,3.909.457,3.152,3.152,0,0,0,3.877-2.821A19.7,19.7,0,0,1,78.261,42.283a19.419,19.419,0,0,1,18.788,8.811,3.152,3.152,0,0,0,4.476.82,15.526,15.526,0,0,1,13.65-1.876,15.273,15.273,0,0,1,9,9.93,3.152,3.152,0,0,0,5.706.867,14.186,14.186,0,0,1,16.3-6.3c5.8,2.033,10.639,8.827,8.575,15.762A13.161,13.161,0,0,1,140,79.1a3.152,3.152,0,0,0-3.152,1.45c-1.576,2.664-6.3,9-14.343,10.576-9.993,1.954-20.68-4.177-25.992-14.911a3.168,3.168,0,0,0-4.886-.993,13.24,13.24,0,0,1-6.4,3.058,13.476,13.476,0,0,1-8.244-1.229,3.178,3.178,0,0,0-4.35,1.687,19.088,19.088,0,0,1-5.816,8.117c-3.925,3.152-13.287,7.629-20.68,2.175C40.479,84.935,37.484,75.966,41.945,69.189Zm9.694,75.074H48.155a7.219,7.219,0,0,1-7.2-7.2V119.17a7.2,7.2,0,0,1,7.2-7.187h3.483Zm-22.067-1.939V113.953a13.3,13.3,0,0,1,13.3-13.3h8.7v5.06h-3.42A13.508,13.508,0,0,0,34.647,119.2v17.811a13.508,13.508,0,0,0,13.508,13.555h3.483v5.06h-8.7a13.319,13.319,0,0,1-13.3-13.35Zm86.6,33.951H78.339a20.491,20.491,0,0,1-20.491-20.491V97.545a28.372,28.372,0,0,0,12.767-5.737,25.219,25.219,0,0,0,6.447-7.881,19.639,19.639,0,0,0,9.095.583,19.4,19.4,0,0,0,6.3-2.285c7.046,11.27,19.371,17.338,31.083,15.1a26.669,26.669,0,0,0,13.413-7.187l-.378,65.617a20.491,20.491,0,0,1-20.349,20.475ZM74.824,102.51a8.511,8.511,0,0,0-8.5,8.511v51.085a8.5,8.5,0,1,0,16.991,0V111.021a8.511,8.511,0,0,0-8.5-8.511Zm2.191,59.6a2.191,2.191,0,1,1-4.382,0V111.021a2.191,2.191,0,0,1,4.382,0Zm20.317-59.6a8.511,8.511,0,0,0-8.511,8.511v51.085a8.511,8.511,0,0,0,17.007,0V111.021a8.511,8.511,0,0,0-8.5-8.511Zm2.191,59.6a2.207,2.207,0,0,1-4.4,0V111.021a2.207,2.207,0,1,1,4.4,0Zm20.38-59.6a8.511,8.511,0,0,0-8.511,8.511v51.085a8.511,8.511,0,0,0,17.007,0V111.021a8.511,8.511,0,0,0-8.5-8.511Zm2.207,59.6a2.191,2.191,0,0,1-2.191,2.191,2.238,2.238,0,0,1-2.207-2.191V111.021a2.238,2.238,0,0,1,2.207-2.207,2.207,2.207,0,0,1,2.191,2.207ZM49.826,35.584A8.937,8.937,0,1,0,40.9,26.647a8.937,8.937,0,0,0,8.921,8.937Zm0-11.554a2.632,2.632,0,1,1-2.616,2.616A2.632,2.632,0,0,1,49.826,24.031Zm111.69,72.71a8.937,8.937,0,1,0,8.921,8.921A8.937,8.937,0,0,0,161.515,96.741Zm0,11.554a2.632,2.632,0,1,1,2.617-2.632,2.632,2.632,0,0,1-2.617,2.632Zm-30.5-66.2a8.913,8.913,0,1,1,.016,0Zm0-11.554a2.609,2.609,0,1,0,.016,0Z" transform="translate(-23.33 -17.71)"/></svg>