<svg xmlns="http://www.w3.org/2000/svg" width="61.007" height="56.981" viewBox="0 0 61.007 56.981"><path d="M31.027.6A16.243,16.243,0,0,1,46.1,10.31c1.345,3.033,1.024,8.183.76,12.321l-.008.153c-.031.458-.056.877-.076,1.3a1.975,1.975,0,0,0,1.019.229,7.142,7.142,0,0,0,2.626-.765,2.532,2.532,0,0,1,1.179-.264,3.477,3.477,0,0,1,1.294.229,2.417,2.417,0,0,1,1.866,2.13q.057,1.712-3.083,2.969c-.226.074-.531.191-.874.3-1.144.343-2.9.915-3.388,2.059a2.66,2.66,0,0,0,.305,2.206l.038.038c.153.346,3.879,8.833,12.179,10.2a1.268,1.268,0,0,1,1.068,1.294,1.54,1.54,0,0,1-.114.572c-.61,1.446-3.236,2.511-8,3.231a6.824,6.824,0,0,0-.417,1.449,10.23,10.23,0,0,1-.341,1.406,1.332,1.332,0,0,1-1.411,1.03h-.076a8.11,8.11,0,0,1-1.368-.188,15.337,15.337,0,0,0-3.236-.343,12.351,12.351,0,0,0-2.321.188,11.4,11.4,0,0,0-4.38,2.247c-2.168,1.523-4.642,3.274-8.373,3.274-.153,0-.3-.038-.458-.038h-.379c-3.732,0-6.169-1.716-8.335-3.274a11.275,11.275,0,0,0-4.339-2.247,16.835,16.835,0,0,0-2.359-.188,15.962,15.962,0,0,0-3.233.379,7.317,7.317,0,0,1-1.373.188,1.419,1.419,0,0,1-1.482-1.068c-.155-.488-.229-.989-.343-1.441a6.744,6.744,0,0,0-.422-1.449C3.373,47.873.75,46.805.142,45.32A1.527,1.527,0,0,1,0,44.749,1.261,1.261,0,0,1,1.07,43.455c8.3-1.373,12.024-9.86,12.179-10.219l.041-.074a2.537,2.537,0,0,0,.3-2.209c-.5-1.1-2.247-1.673-3.386-2.056a5.677,5.677,0,0,1-.88-.3c-2.814-1.106-3.2-2.364-3.043-3.236a3,3,0,0,1,2.969-2.016,2.575,2.575,0,0,1,.974.188,6.954,6.954,0,0,0,2.806.763,2.4,2.4,0,0,0,1.182-.267L14.1,22.58c-.249-4.133-.572-9.281.78-12.3A15.986,15.986,0,0,1,29.81.632L30.875.594h.153Z" transform="translate(0 -0.594)" fill="#373737"/></svg>