<svg xmlns="http://www.w3.org/2000/svg" width="61.011" height="49.587" viewBox="0 0 61.011 49.587"><path d="M60.891,7.59A25.421,25.421,0,0,1,53.71,9.56a12.6,12.6,0,0,0,5.5-6.922,25.834,25.834,0,0,1-7.949,3.01,12.5,12.5,0,0,0-21.635,8.536,12.8,12.8,0,0,0,.323,2.857A35.422,35.422,0,0,1,4.169,4.01,12.257,12.257,0,0,0,2.476,10.3,12.509,12.509,0,0,0,8.038,20.714a12.467,12.467,0,0,1-5.664-1.566V19.3A12.514,12.514,0,0,0,12.4,31.573a12.622,12.622,0,0,1-5.623.216,12.549,12.549,0,0,0,11.7,8.686A25.084,25.084,0,0,1,2.974,45.826,26.547,26.547,0,0,1,0,45.656a35.576,35.576,0,0,0,19.21,5.615c23.015,0,35.585-19.055,35.585-35.552,0-.531,0-1.068-.038-1.6A25.257,25.257,0,0,0,61.011,7.64l-.119-.051Z" transform="translate(0 -1.685)" fill="#373737"/></svg>