<svg xmlns="http://www.w3.org/2000/svg" width="60.985" height="42.622" viewBox="0 0 60.985 42.622"><path d="M59.716,9.293a7.644,7.644,0,0,0-5.308-5.308C49.654,2.712,30.523,2.712,30.523,2.712S11.441,2.687,6.639,3.986A7.644,7.644,0,0,0,1.331,9.293,79.43,79.43,0,0,0,0,24.05a79.429,79.429,0,0,0,1.327,14.7,7.644,7.644,0,0,0,5.308,5.308c4.748,1.276,23.885,1.276,23.885,1.276s19.08,0,23.885-1.276a7.644,7.644,0,0,0,5.308-5.308,79.43,79.43,0,0,0,1.271-14.7A79.43,79.43,0,0,0,59.716,9.293Zm-35.3,23.885V14.893L40.341,24.05Z" transform="translate(-0.004 -2.712)" fill="#373737"/></svg>